<?xml version="1.0" encoding="UTF-8"?>
<svg xmlns="http://www.w3.org/2000/svg" xmlns:xlink="http://www.w3.org/1999/xlink" width="450pt" height="450pt" viewBox="0 0 450 450" version="1.1">
<g id="surface62">
<path style=" stroke:none;fill-rule:nonzero;fill:rgb(79.6%,23.5%,20%);fill-opacity:1;" d="M 225.035156 93.078125 L 185.066406 91.539062 C 186.976562 41.871094 228.792969 3.15625 278.460938 5.066406 C 328.128906 6.976562 366.84375 48.792969 364.933594 98.460938 L 324.964844 96.921875 C 326.023438 69.328125 304.515625 46.097656 276.921875 45.035156 C 249.328125 43.976562 226.097656 65.484375 225.035156 93.078125 Z M 225.035156 93.078125 "/>
<path style=" stroke:none;fill-rule:nonzero;fill:rgb(79.6%,23.5%,20%);fill-opacity:1;" d="M 323.039062 146.886719 L 363.011719 148.421875 C 361.101562 198.09375 319.285156 236.808594 269.617188 234.898438 C 219.949219 232.984375 181.234375 191.171875 183.144531 141.503906 L 223.113281 143.039062 C 222.054688 170.632812 243.5625 193.863281 271.15625 194.925781 C 298.75 195.988281 321.980469 174.480469 323.039062 146.886719 Z M 323.039062 146.886719 "/>
<path style=" stroke:none;fill-rule:nonzero;fill:rgb(79.6%,23.5%,20%);fill-opacity:1;" d="M 325.078125 93.925781 L 365.046875 95.464844 L 362.894531 151.421875 L 322.925781 149.882812 Z M 325.078125 93.925781 "/>
<path style=" stroke:none;fill-rule:nonzero;fill:rgb(79.6%,23.5%,20%);fill-opacity:1;" d="M 185.183594 88.542969 L 225.152344 90.082031 L 223 146.039062 L 183.03125 144.5 Z M 185.183594 88.542969 "/>
<path style="fill:none;stroke-width:2;stroke-linecap:butt;stroke-linejoin:miter;stroke:rgb(0%,0%,0%);stroke-opacity:1;stroke-miterlimit:10;" d="M 223.113281 143.039062 L 225.035156 93.078125 C 226.097656 65.484375 249.328125 43.976562 276.921875 45.035156 C 304.515625 46.097656 326.023438 69.328125 324.964844 96.921875 L 323.039062 146.886719 C 321.980469 174.480469 298.75 195.988281 271.15625 194.925781 C 243.5625 193.863281 222.054688 170.632812 223.113281 143.039062 "/>
<path style="fill:none;stroke-width:2;stroke-linecap:butt;stroke-linejoin:miter;stroke:rgb(0%,0%,0%);stroke-opacity:1;stroke-miterlimit:10;" d="M 183.144531 141.503906 L 185.066406 91.539062 C 186.976562 41.871094 228.792969 3.15625 278.460938 5.066406 C 328.128906 6.976562 366.84375 48.792969 364.933594 98.460938 L 363.011719 148.421875 C 361.101562 198.09375 319.285156 236.808594 269.617188 234.898438 C 219.949219 232.984375 181.234375 191.171875 183.144531 141.503906 "/>
<path style=" stroke:none;fill-rule:nonzero;fill:rgb(22%,59.6%,14.9%);fill-opacity:1;" d="M 198.523438 177.847656 L 181.308594 141.742188 C 226.175781 120.351562 279.890625 139.382812 301.28125 184.25 C 322.667969 229.121094 303.636719 282.832031 258.769531 304.222656 L 241.554688 268.113281 C 266.480469 256.230469 277.054688 226.390625 265.171875 201.464844 C 253.289062 176.539062 223.449219 165.964844 198.523438 177.847656 Z M 198.523438 177.847656 "/>
<path style=" stroke:none;fill-rule:nonzero;fill:rgb(22%,59.6%,14.9%);fill-opacity:1;" d="M 196.421875 289.632812 L 213.636719 325.738281 C 168.765625 347.128906 115.054688 328.097656 93.664062 283.226562 C 72.273438 238.359375 91.308594 184.648438 136.175781 163.257812 L 153.390625 199.363281 C 128.460938 211.246094 117.890625 241.089844 129.773438 266.015625 C 141.65625 290.941406 171.496094 301.515625 196.421875 289.632812 Z M 196.421875 289.632812 "/>
<path style=" stroke:none;fill-rule:nonzero;fill:rgb(22%,59.6%,14.9%);fill-opacity:1;" d="M 244.261719 266.824219 L 261.476562 302.929688 L 210.925781 327.027344 L 193.710938 290.921875 Z M 244.261719 266.824219 "/>
<path style=" stroke:none;fill-rule:nonzero;fill:rgb(22%,59.6%,14.9%);fill-opacity:1;" d="M 184.015625 140.449219 L 201.230469 176.554688 L 150.679688 200.652344 L 133.464844 164.546875 Z M 184.015625 140.449219 "/>
<path style="fill:none;stroke-width:2;stroke-linecap:butt;stroke-linejoin:miter;stroke:rgb(0%,0%,0%);stroke-opacity:1;stroke-miterlimit:10;" d="M 153.390625 199.363281 L 198.523438 177.847656 C 223.449219 165.964844 253.289062 176.539062 265.171875 201.464844 C 277.054688 226.390625 266.480469 256.230469 241.554688 268.113281 L 196.421875 289.632812 C 171.496094 301.515625 141.65625 290.941406 129.773438 266.015625 C 117.890625 241.089844 128.460938 211.246094 153.390625 199.363281 "/>
<path style="fill:none;stroke-width:2;stroke-linecap:butt;stroke-linejoin:miter;stroke:rgb(0%,0%,0%);stroke-opacity:1;stroke-miterlimit:10;" d="M 136.175781 163.257812 L 181.308594 141.742188 C 226.175781 120.351562 279.890625 139.382812 301.28125 184.25 C 322.667969 229.121094 303.636719 282.832031 258.769531 304.222656 L 213.636719 325.738281 C 168.765625 347.128906 115.054688 328.097656 93.664062 283.226562 C 72.273438 238.359375 91.308594 184.648438 136.175781 163.257812 "/>
<path style=" stroke:none;fill-rule:nonzero;fill:rgb(79.6%,23.5%,20%);fill-opacity:1;" d="M 323.039062 146.886719 L 363.011719 148.421875 C 361.710938 182.242188 341.546875 212.472656 310.824219 226.664062 C 280.101562 240.859375 244.011719 236.617188 217.417969 215.6875 L 242.15625 184.253906 C 256.929688 195.882812 276.980469 198.238281 294.046875 190.351562 C 311.117188 182.46875 322.316406 165.671875 323.039062 146.886719 Z M 323.039062 146.886719 "/>
<path style="fill:none;stroke-width:2;stroke-linecap:butt;stroke-linejoin:miter;stroke:rgb(0%,0%,0%);stroke-opacity:1;stroke-miterlimit:10;" d="M 323.039062 146.886719 C 322.316406 165.671875 311.117188 182.46875 294.046875 190.351562 C 276.980469 198.238281 256.929688 195.882812 242.15625 184.253906 M 363.011719 148.421875 C 361.710938 182.242188 341.546875 212.472656 310.824219 226.664062 C 280.101562 240.859375 244.011719 236.617188 217.417969 215.6875 "/>
<path style=" stroke:none;fill-rule:nonzero;fill:rgb(58.4%,34.5%,69.8%);fill-opacity:1;" d="M 44.929688 291.074219 L 5.023438 288.316406 C 8.449219 238.726562 51.425781 201.308594 101.015625 204.734375 C 150.601562 208.160156 188.023438 251.136719 184.597656 300.722656 L 144.691406 297.964844 C 146.59375 270.417969 125.804688 246.542969 98.257812 244.636719 C 70.707031 242.734375 46.832031 263.523438 44.929688 291.074219 Z M 44.929688 291.074219 "/>
<path style=" stroke:none;fill-rule:nonzero;fill:rgb(58.4%,34.5%,69.8%);fill-opacity:1;" d="M 141.246094 347.847656 L 181.148438 350.605469 C 177.722656 400.191406 134.746094 437.613281 85.160156 434.1875 C 35.570312 430.761719 -1.847656 387.785156 1.578125 338.195312 L 41.480469 340.953125 C 39.578125 368.503906 60.367188 392.378906 87.917969 394.28125 C 115.464844 396.183594 139.339844 375.394531 141.246094 347.847656 Z M 141.246094 347.847656 "/>
<path style=" stroke:none;fill-rule:nonzero;fill:rgb(58.4%,34.5%,69.8%);fill-opacity:1;" d="M 144.898438 294.972656 L 184.804688 297.730469 L 180.945312 353.597656 L 141.039062 350.839844 Z M 144.898438 294.972656 "/>
<path style=" stroke:none;fill-rule:nonzero;fill:rgb(58.4%,34.5%,69.8%);fill-opacity:1;" d="M 5.230469 285.324219 L 45.136719 288.082031 L 41.277344 343.949219 L 1.371094 341.191406 Z M 5.230469 285.324219 "/>
<path style="fill:none;stroke-width:2;stroke-linecap:butt;stroke-linejoin:miter;stroke:rgb(0%,0%,0%);stroke-opacity:1;stroke-miterlimit:10;" d="M 41.480469 340.953125 L 44.929688 291.074219 C 46.832031 263.523438 70.707031 242.734375 98.257812 244.636719 C 125.804688 246.542969 146.59375 270.417969 144.691406 297.964844 L 141.246094 347.847656 C 139.339844 375.394531 115.464844 396.183594 87.917969 394.28125 C 60.367188 392.378906 39.578125 368.503906 41.480469 340.953125 "/>
<path style="fill:none;stroke-width:2;stroke-linecap:butt;stroke-linejoin:miter;stroke:rgb(0%,0%,0%);stroke-opacity:1;stroke-miterlimit:10;" d="M 1.578125 338.195312 L 5.023438 288.316406 C 8.449219 238.726562 51.425781 201.308594 101.015625 204.734375 C 150.601562 208.160156 188.023438 251.136719 184.597656 300.722656 L 181.148438 350.605469 C 177.722656 400.191406 134.746094 437.613281 85.160156 434.1875 C 35.570312 430.761719 -1.847656 387.785156 1.578125 338.195312 "/>
<path style=" stroke:none;fill-rule:nonzero;fill:rgb(22%,59.6%,14.9%);fill-opacity:1;" d="M 196.421875 289.632812 L 213.636719 325.738281 C 168.765625 347.128906 115.054688 328.097656 93.664062 283.226562 L 129.773438 266.015625 C 141.65625 290.941406 171.496094 301.515625 196.421875 289.632812 Z M 196.421875 289.632812 "/>
<path style="fill:none;stroke-width:2;stroke-linecap:butt;stroke-linejoin:miter;stroke:rgb(0%,0%,0%);stroke-opacity:1;stroke-miterlimit:10;" d="M 196.421875 289.632812 C 171.496094 301.515625 141.65625 290.941406 129.773438 266.015625 M 213.636719 325.738281 C 168.765625 347.128906 115.054688 328.097656 93.664062 283.226562 "/>
</g>
</svg>
